HIERARCHY
ROOT Hips
{
	OFFSET -3.958830 18.904000 13.208200
	CHANNELS 6 Xposition Yposition Zposition Zrotation Yrotation Xrotation 
	JOINT LHipJoint
	{
		OFFSET 0.000000 0.000000 0.000000
		CHANNELS 3 Zrotation Yrotation Xrotation
		JOINT LeftUpLeg
		{
			OFFSET 1.800000 -1.400000 0.085000
			CHANNELS 3 Zrotation Yrotation Xrotation
			JOINT LeftLeg
			{
				OFFSET 2.215000 -6.000000 0.000000
				CHANNELS 3 Zrotation Yrotation Xrotation
				JOINT LeftFoot
				{
					OFFSET 2.500000 -6.900000 0.000000
					CHANNELS 3 Zrotation Yrotation Xrotation
					JOINT LeftToeBase
					{
						OFFSET 0.200000 -0.500000 1.950000
						CHANNELS 3 Zrotation Yrotation Xrotation
						End Site
						{
							OFFSET 0.000000 0.000000 0.000000
						}
					}
				}
			}
		}
	}
	JOINT RHipJoint
	{
		OFFSET 0.000000 0.000000 0.000000
		CHANNELS 3 Zrotation Yrotation Xrotation
		JOINT RightUpLeg
		{
			OFFSET -1.800000 -1.400000 0.085000
			CHANNELS 3 Zrotation Yrotation Xrotation
			JOINT RightLeg
			{
				OFFSET -2.215000 -6.000000 0.000000
				CHANNELS 3 Zrotation Yrotation Xrotation
				JOINT RightFoot
				{
					OFFSET -2.500000 -6.900000 0.000000
					CHANNELS 3 Zrotation Yrotation Xrotation
					JOINT RightToeBase
					{
						OFFSET -0.200000 -0.500000 1.950000
						CHANNELS 3 Zrotation Yrotation Xrotation
						End Site
						{
							OFFSET 0.000000 0.000000 0.000000
						}
					}
				}
			}
		}
	}
	JOINT LowerBack
	{
		OFFSET 0.000000 0.000000 0.000000
		CHANNELS 3 Zrotation Yrotation Xrotation
		JOINT Spine
		{
			OFFSET -0.087000 1.940000 -0.288900
			CHANNELS 3 Zrotation Yrotation Xrotation
			JOINT Spine1
			{
				OFFSET 0.000000 1.950000 0.060000
				CHANNELS 3 Zrotation Yrotation Xrotation
				JOINT Neck
				{
					OFFSET 0.000000 0.000000 0.000000
					CHANNELS 3 Zrotation Yrotation Xrotation
					JOINT Neck1
					{
						OFFSET 0.000000 1.600000 0.340000
						CHANNELS 3 Zrotation Yrotation Xrotation
						JOINT Head
						{
							OFFSET 0.000000 1.667000 -0.240000
							CHANNELS 3 Zrotation Yrotation Xrotation
							End Site
							{
								OFFSET 0.000000 0.000000 0.000000
							}
						}
					}
				}
				JOINT LeftShoulder
				{
					OFFSET 0.000000 0.000000 0.000000
					CHANNELS 3 Zrotation Yrotation Xrotation
					JOINT LeftArm
					{
						OFFSET 2.700000 1.550000 -0.730000
						CHANNELS 3 Zrotation Yrotation Xrotation
						JOINT LeftForeArm
						{
							OFFSET 5.450000 0.000000 0.000000
							CHANNELS 3 Zrotation Yrotation Xrotation
							JOINT LeftHand
							{
								OFFSET 3.450000 0.000000 0.000000
								CHANNELS 3 Zrotation Yrotation Xrotation
								JOINT LeftHandIndex1
								{
									OFFSET 0.750000 0.000000 0.000000
									CHANNELS 3 Zrotation Yrotation Xrotation
									End Site
									{
										OFFSET 0.000000 0.000000 0.000000
									}
								}
							}
						}
					}
				}
				JOINT RightShoulder
				{
					OFFSET 0.000000 0.000000 0.000000
					CHANNELS 3 Zrotation Yrotation Xrotation
					JOINT RightArm
					{
						OFFSET -2.700000 1.550000 -0.730000
						CHANNELS 3 Zrotation Yrotation Xrotation
						JOINT RightForeArm
						{
							OFFSET -5.450000 0.000000 0.000000
							CHANNELS 3 Zrotation Yrotation Xrotation
							JOINT RightHand
							{
								OFFSET -3.450000 0.000000 0.000000
								CHANNELS 3 Zrotation Yrotation Xrotation
								JOINT RightHandIndex1
								{
									OFFSET -0.750000 0.000000 0.000000
									CHANNELS 3 Zrotation Yrotation Xrotation
									End Site
									{
										OFFSET 0.000000 0.000000 0.000000
									}
								}
							}
						}
					}
				}
			}
		}
	}
}
MOTION
Frames: 13
Frame Time: 0.016667
-4.727070 16.502100 14.916010 -0.174456 24.876899 -11.439823 -15.048465 13.311747 2.783675 1.730144 -1.372641 -5.819834 -4.335646 10.822731 40.258103 0.064706 8.061782 1.790789 0.517020 0.402450 0.284380 18.293742 -11.296279 2.786460 -7.591216 2.358938 -16.904970 12.045654 -8.123531 23.732169 -0.477072 -4.567961 2.593639 0.366260 0.304360 0.231250 -4.576019 -0.792996 -7.722174 13.947163 -0.695997 11.083004 -6.096923 1.143104 21.990679 1.906829 -2.948789 -19.359643 -6.148074 0.274229 29.187972 -0.198890 -1.086520 -17.986800 -11.857618 -40.275136 11.660584 -29.004047 -26.557955 -8.886469 -18.016485 -67.890220 4.222408 -3.068497 3.456844 0.555550 0.085310 0.083150 0.219400 8.564118 42.908114 14.488998 37.244288 29.672367 -10.014549 3.699399 49.641029 -2.580206 1.456462 -1.599996 -0.250980 0.403640 0.017250 -0.095270 
-4.775830 16.665210 14.937750 0.801856 30.343525 -11.667102 -15.220866 13.688156 2.765850 2.311586 -0.776631 -5.201395 -3.761824 10.089508 37.429087 -0.038929 7.545870 1.936143 0.510920 0.356780 0.306940 18.085640 -11.294820 2.635440 -7.920966 1.152495 -13.100934 9.545499 -6.702578 18.856584 -0.414113 -4.008360 2.791882 0.317620 0.247130 0.263450 -4.235570 -1.472240 -7.607198 10.654766 -0.101094 11.442165 -5.071363 1.581639 21.093430 1.378982 -4.142776 -18.572850 -8.872345 2.186411 30.294874 -0.068970 0.195930 -18.972960 -9.420774 -38.615986 11.036805 -29.673581 -28.600442 -7.020816 -17.970794 -72.543537 4.566742 -3.082528 3.480538 0.604040 0.039390 0.115930 0.188530 7.409591 42.146592 14.304701 36.299931 28.903169 -11.335807 9.067695 59.337787 -0.715336 1.449643 -1.661404 -0.229090 0.340870 0.031670 -0.120450 
-4.789580 16.829560 14.927890 1.826787 36.805642 -10.368201 -15.396209 13.708800 2.672718 2.240201 -0.821449 -5.650980 -4.236127 9.043762 32.779716 -0.391264 6.819980 2.132206 0.674810 0.502140 0.483610 17.972479 -11.119853 2.497095 -9.676285 0.291201 -10.796449 8.896351 -6.003191 14.283692 -0.441656 -3.865716 2.763845 0.466250 0.184390 0.304170 -3.928969 -1.893884 -7.229452 6.791388 -0.323705 9.285042 -4.948943 1.064590 21.400427 0.892823 -3.326793 -15.610534 -6.989131 3.664173 27.501910 -1.598880 2.213650 -21.499830 -5.923024 -35.586504 9.173353 -32.132594 -32.766515 -3.586813 -6.626674 -72.409641 -2.264291 -3.228259 3.317114 0.644990 0.045200 0.141600 0.169900 4.648072 38.079298 12.298884 40.214587 30.661219 -10.517175 -5.822144 66.804123 -9.992321 1.386000 -1.494782 -0.246710 0.332350 -0.005410 -0.200080 
-4.820120 16.987350 14.942420 2.817916 43.183007 -8.866382 -15.568783 13.801089 2.671871 3.871809 -0.926945 -6.936173 -6.817319 9.348852 29.409225 -0.448953 6.503047 2.186498 0.795710 0.660980 0.531170 17.822005 -10.708298 2.565192 -11.873706 -0.075529 -8.260774 10.169574 -5.540964 9.059035 -0.512628 -3.942063 2.711770 0.549970 0.119370 0.335130 -3.415790 -2.789650 -7.156621 2.344301 -0.652628 7.956605 -3.656312 0.768649 21.736262 0.272865 -4.012237 -15.283890 -8.282187 4.367497 25.888335 -1.136720 2.228350 -22.329480 -4.573920 -34.806468 9.043770 -34.532805 -35.790643 -2.353610 7.741153 -73.975064 -12.573236 -3.177208 3.218309 0.605820 0.018260 0.175860 0.194410 4.578273 37.919279 11.878291 38.778034 30.364952 -9.576238 -2.840146 70.761218 -8.633956 1.404532 -1.616571 -0.168590 0.268140 -0.065930 -0.176840 
-4.842090 17.131070 14.944870 3.134241 47.141258 -8.604120 -15.633572 13.821420 2.595044 4.885266 -0.113982 -6.027651 -8.245701 8.576507 22.689411 -0.497695 5.764411 2.504293 0.810950 0.820310 0.476480 17.805419 -10.458570 2.623547 -12.204901 -0.267516 -5.690838 9.089733 -4.814173 5.169396 -0.540329 -4.055465 2.764972 0.648240 0.196610 0.325150 -3.249717 -3.256329 -7.038176 0.975953 -0.281715 6.477908 -3.704164 1.503357 24.386967 -0.405538 -4.767452 -15.998546 -9.752088 6.595890 24.557936 -2.823490 4.072890 -20.310880 0.430820 -35.680433 10.083904 -34.865389 -36.979243 -4.593581 36.997647 -69.794811 -31.181459 -3.276851 2.587253 0.438840 0.139820 0.163990 0.255740 0.826727 39.228708 12.151419 37.739227 29.778572 -12.640932 -26.189116 70.739158 -23.978301 1.218181 -1.234983 -0.127090 0.321700 -0.121800 -0.095490 
-4.863930 17.240130 14.955120 4.700605 50.129702 -6.982019 -15.678517 13.762789 2.724392 6.425084 0.313526 -6.260731 -12.295887 8.975827 17.715066 -0.467143 5.779153 2.587290 0.727970 0.786830 0.400730 17.794574 -10.162592 2.607709 -13.379061 -0.251422 -3.864695 7.697439 -4.359996 2.512349 -0.564666 -4.111137 2.850622 0.637830 0.338790 0.283510 -3.024754 -3.814150 -7.058224 -0.515842 0.225705 5.970812 -4.873546 2.819169 24.477370 -0.794487 -6.305511 -16.255529 -13.186227 9.033649 24.025571 -2.935150 5.163000 -20.350430 1.591537 -34.824058 10.585043 -35.353781 -38.277860 -3.784720 50.638073 -68.367740 -39.722687 -3.487078 2.060544 0.411490 0.213900 0.141520 0.291260 0.302346 39.351896 11.597871 34.750714 28.373852 -13.211067 -31.391103 71.022869 -26.600629 1.136418 -0.982434 -0.186520 0.492250 -0.084000 -0.050490 
-4.879900 17.308280 14.956340 4.302523 53.637908 -5.875163 -15.686512 13.721142 2.778839 7.703655 0.082816 -8.289803 -12.479526 7.873638 13.425784 -0.687414 5.380968 2.766045 0.770110 0.846740 0.436400 17.806092 -10.008665 2.594846 -13.172686 -0.080130 -3.363496 5.951433 -3.882977 0.970034 -0.570088 -4.080886 2.911504 0.734560 0.420400 0.246440 -3.010633 -4.099684 -7.038164 -0.247483 0.408583 5.302528 -6.040769 3.553820 24.231699 -0.820732 -7.264890 -16.458767 -15.181007 11.045100 21.645932 -3.627400 6.175520 -20.624100 0.248824 -34.395850 11.426767 -36.245493 -40.498500 -1.967719 60.096799 -63.718891 -43.888530 -3.787567 1.921814 0.420620 0.279350 0.115220 0.333390 1.608244 39.152850 10.349218 30.615140 27.300271 -12.754439 -31.576360 70.999362 -25.527458 1.038162 -0.957058 -0.271830 0.626970 -0.098370 -0.066570 
-4.903750 17.332560 14.977840 6.115733 55.187592 -2.682681 -15.735135 13.833350 2.945689 7.466403 -0.318140 -10.445153 -12.329370 7.092116 10.794165 -0.936109 5.188882 2.883778 0.686670 0.675400 0.460720 17.726787 -9.885152 2.515350 -14.355922 0.311496 -4.988636 5.534456 -3.772678 1.484955 -0.476692 -3.888561 2.960360 0.721280 0.515570 0.183060 -2.722930 -4.660968 -7.066905 -2.972622 1.208814 4.746201 -3.902395 4.348212 21.504409 -1.849289 -8.800815 -16.730364 -18.598821 14.858287 18.841052 -3.534210 8.560100 -21.006740 -2.294603 -33.613934 11.120261 -35.997410 -40.087893 -0.719674 60.409071 -63.845203 -43.759302 -3.843329 1.722209 0.542500 0.303890 0.046810 0.291340 6.672504 39.748126 10.006004 24.047189 25.905769 -10.615356 -17.646815 72.754735 -15.335725 1.130360 -1.178911 -0.465460 0.761630 -0.018050 -0.154880 
-4.902710 17.357240 14.967310 5.023703 57.502146 -2.453420 -15.702334 13.715654 3.117689 9.134806 -0.583391 -11.942476 -12.851652 6.427700 7.581000 -0.823521 4.935163 3.006918 0.586690 0.562190 0.360860 17.725810 -9.842705 2.559619 -15.007428 0.437024 -5.213278 7.071997 -4.015052 1.702727 -0.471073 -3.887111 3.012822 0.591410 0.521430 0.134510 -2.900117 -4.635405 -7.317699 -1.079050 1.569140 6.222107 -5.114326 5.006003 19.090879 -1.162935 -10.404619 -18.294536 -23.518391 16.227252 17.660645 -2.290830 8.818320 -20.639540 -5.986385 -33.659133 11.105156 -34.336728 -40.040094 -0.471431 58.104999 -63.673045 -40.852144 -3.780254 1.755851 0.564560 0.233420 0.051990 0.315700 9.700551 40.557760 11.701847 21.245741 20.686564 -12.231956 -19.505030 78.371108 -18.283829 1.240673 -1.121459 -0.459190 0.753330 -0.020330 -0.104400 
-4.925510 17.371800 14.940990 5.650112 59.811876 -1.272238 -15.713236 13.797522 3.214213 9.450281 -0.970296 -13.801502 -11.676439 5.852681 6.713857 -0.853811 4.671286 3.083634 0.567110 0.541290 0.383410 17.675728 -9.888036 2.469336 -15.961317 0.585047 -5.991412 7.201386 -4.249396 3.487744 -0.431920 -3.849728 2.993686 0.569120 0.508100 0.156230 -2.875716 -4.822947 -7.344897 -1.403680 1.601438 6.688610 -6.312364 5.509524 18.873737 -0.660669 -10.421282 -19.172465 -24.470657 17.383965 16.670209 -3.637780 10.285410 -19.763690 -7.456978 -34.248112 11.593306 -32.628890 -40.025254 -1.501132 58.335119 -61.368230 -39.551221 -3.962767 1.912278 0.530940 0.253320 0.055260 0.291590 10.320948 40.831228 12.014759 20.805986 18.388808 -13.503215 -22.846164 77.067664 -20.080551 1.224530 -1.097623 -0.438050 0.711620 -0.020980 -0.110890 
-4.958330 17.337570 14.927740 4.794325 62.422359 -2.111002 -15.712275 13.757265 3.393532 11.627838 -0.991990 -14.930801 -12.168652 5.722567 5.167121 -0.583701 4.668725 3.123086 0.397690 0.402440 0.319850 17.648502 -9.919906 2.382506 -16.142504 0.503753 -5.671659 7.196110 -4.550407 4.728621 -0.393104 -3.887248 3.063776 0.393290 0.542990 0.198080 -2.734376 -4.770424 -7.453322 -1.258493 1.215854 7.095834 -7.996146 5.361629 19.840055 1.773924 -9.647933 -20.449252 -23.530600 17.786716 18.940113 -8.679890 13.677010 -16.508620 -6.482867 -35.114266 13.366551 -32.393568 -39.470917 -3.540149 60.103177 -58.134901 -39.353936 -4.259728 2.134336 0.404440 0.333560 0.081470 0.311600 4.797456 41.842974 12.095562 26.169775 20.041253 -15.999989 -38.018795 72.636417 -29.106545 1.145589 -0.686854 -0.371410 0.629150 -0.055960 -0.043470 
-5.025150 17.291800 14.989630 7.765663 64.785794 0.093934 -15.707363 13.617566 3.531387 13.095023 -0.797798 -15.589607 -13.664600 5.960305 4.686462 -0.482274 4.861604 3.065005 0.379590 0.476240 0.104310 17.641835 -9.984155 2.300124 -17.396924 0.488247 -4.863869 6.624788 -4.679066 5.533340 -0.410026 -3.980540 3.116846 0.401730 0.712580 0.169290 -2.982392 -4.647977 -7.585770 -1.104704 1.341489 7.459302 -10.632575 6.857605 21.915614 0.990798 -9.316079 -22.451778 -24.654217 17.013590 21.608733 -1.821470 9.703730 -15.233450 -5.568196 -37.313075 14.672741 -29.576587 -37.625759 -7.736648 61.902785 -53.928601 -39.445187 -4.698918 2.541842 0.329520 0.345040 0.037130 0.406550 5.166753 43.301530 12.994937 27.059498 21.622536 -15.737042 -39.717240 59.565842 -24.296383 1.192342 -0.885819 -0.321140 0.786510 0.021270 0.105110 
-5.023540 17.212520 14.948250 6.427035 68.049409 1.193819 -15.761548 13.526292 3.650642 13.959628 -1.473431 -19.408688 -12.305587 5.282413 3.979442 -0.882863 4.689019 2.994446 0.604910 0.629560 0.408750 17.650017 -9.747337 2.147271 -17.462890 0.864801 -6.268748 7.048290 -4.634421 6.487135 -0.387697 -3.969778 2.912486 0.642950 0.517940 0.192390 -2.656903 -5.059547 -7.346075 -3.258193 2.144813 5.169009 -9.347381 7.199390 20.653002 -0.136444 -9.202486 -19.885281 -22.025190 15.967219 17.831906 -4.885860 10.017790 -17.131650 -2.725980 -33.843542 12.325969 -35.839679 -40.493118 -3.703226 54.545736 -54.958547 -35.376308 -4.052255 2.247828 0.412440 0.341980 0.033150 0.292810 3.991335 39.207309 11.614105 30.389119 20.208680 -12.846226 -32.196587 55.589270 -18.426921 1.164057 -1.240149 -0.395810 0.669320 -0.048470 -0.098380 
